<svg width="124" height="124" viewBox="0 0 124 124" fill="none" xmlns="http://www.w3.org/2000/svg">
<g id="Magnifier">
<path id="Vector" opacity="0.8" d="M112.168 104.831L93 85.8181C100.441 76.5409 104.044 64.7655 103.069 52.9131C102.094 41.0608 96.615 30.0325 87.7585 22.0957C78.9021 14.159 67.3413 9.91722 55.4534 10.2425C43.5655 10.5678 32.2541 15.4355 23.8449 23.8446C15.4357 32.2538 10.5681 43.5653 10.2428 55.4532C9.91746 67.3411 14.1593 78.9018 22.096 87.7583C30.0327 96.6147 41.0611 102.094 52.9134 103.069C64.7657 104.044 76.5411 100.44 85.8183 92.9997L104.832 112.013C105.312 112.497 105.883 112.882 106.513 113.144C107.143 113.406 107.818 113.541 108.5 113.541C109.182 113.541 109.857 113.406 110.487 113.144C111.117 112.882 111.688 112.497 112.168 112.013C113.1 111.05 113.62 109.762 113.62 108.422C113.62 107.082 113.1 105.795 112.168 104.831ZM56.8333 92.9997C49.6802 92.9997 42.6878 90.8786 36.7402 86.9046C30.7926 82.9305 26.1571 77.2821 23.4197 70.6735C20.6823 64.0649 19.9661 56.793 21.3616 49.7773C22.7571 42.7617 26.2016 36.3174 31.2596 31.2594C36.3176 26.2014 42.7619 22.7568 49.7776 21.3613C56.7932 19.9658 64.0651 20.6821 70.6737 23.4194C77.2823 26.1568 82.9308 30.7924 86.9048 36.74C90.8789 42.6875 93 49.68 93 56.8331C93 66.4251 89.1896 75.6242 82.407 82.4068C75.6245 89.1893 66.4253 92.9997 56.8333 92.9997Z" fill="white" fill-opacity="0.7"/>
</g>
</svg>
