<svg width="45" height="45" viewBox="0 0 45 45" fill="none" xmlns="http://www.w3.org/2000/svg">
<g id="Call">
<path id="Vector" d="M36.2687 24.1922C35.8593 24.1922 35.4312 24.0619 35.0218 23.9689C34.1927 23.7862 33.3779 23.5436 32.5839 23.2431C31.7205 22.929 30.7715 22.9453 29.9195 23.2889C29.0674 23.6325 28.3726 24.279 27.9686 25.1041L27.5591 25.9416C25.7465 24.9332 24.0809 23.6809 22.6089 22.2195C21.1475 20.7475 19.8952 19.0819 18.8868 17.2692L19.6685 16.7482C20.4936 16.3442 21.1401 15.6493 21.4837 14.7972C21.8272 13.9452 21.8435 12.9962 21.5295 12.1329C21.234 11.3371 20.9915 10.5227 20.8037 9.69492C20.7106 9.2855 20.6362 8.85747 20.5803 8.42944C20.3544 7.11858 19.6678 5.93148 18.6442 5.08192C17.6206 4.23236 16.3274 3.77617 14.9973 3.79551H9.41427C8.61223 3.78798 7.81798 3.95335 7.0856 4.28036C6.35322 4.60737 5.69989 5.08835 5.1701 5.69055C4.6403 6.29275 4.24648 7.00203 4.01545 7.7701C3.78441 8.53818 3.72158 9.34702 3.83123 10.1416C4.82266 17.9381 8.38332 25.1821 13.9508 30.7293C19.5182 36.2765 26.7751 39.8108 34.5752 40.7738H35.2823C36.6547 40.7759 37.9797 40.2724 39.0044 39.3595C39.5931 38.8329 40.0634 38.1874 40.3843 37.4656C40.7051 36.7437 40.869 35.9621 40.8654 35.1722V29.5892C40.8426 28.2965 40.3719 27.0518 39.5335 26.0675C38.6952 25.0832 37.5413 24.4204 36.2687 24.1922ZM37.1992 35.3583C37.1989 35.6225 37.1423 35.8837 37.0332 36.1243C36.9241 36.365 36.765 36.5797 36.5664 36.7541C36.3591 36.9346 36.116 37.0693 35.8531 37.1495C35.5901 37.2297 35.3132 37.2535 35.0404 37.2193C28.0707 36.3257 21.5969 33.1372 16.6401 28.1567C11.6832 23.1763 8.52547 16.6874 7.66492 9.71353C7.6353 9.44093 7.66125 9.16515 7.74122 8.90286C7.82119 8.64057 7.9535 8.39722 8.13017 8.1875C8.30456 7.98899 8.51923 7.82989 8.7599 7.72079C9.00056 7.61169 9.26169 7.55509 9.52593 7.55476H15.109C15.5417 7.54513 15.9643 7.68667 16.304 7.95501C16.6437 8.22335 16.8792 8.60171 16.97 9.02496C17.0444 9.53364 17.1375 10.0361 17.2491 10.5324C17.4641 11.5134 17.7502 12.4775 18.1052 13.417L15.4998 14.6266C15.277 14.7288 15.0766 14.874 14.9101 15.0539C14.7436 15.2338 14.6143 15.4447 14.5296 15.6747C14.4448 15.9047 14.4064 16.1492 14.4164 16.3941C14.4264 16.6389 14.4847 16.8795 14.5879 17.1018C17.2663 22.8388 21.8779 27.4505 27.615 30.1289C28.0681 30.315 28.5763 30.315 29.0293 30.1289C29.2614 30.0458 29.4747 29.9175 29.6568 29.7514C29.8389 29.5853 29.9862 29.3846 30.0901 29.1611L31.2439 26.5557C32.206 26.8998 33.1879 27.1856 34.1844 27.4118C34.6806 27.5234 35.1831 27.6165 35.6918 27.6909C36.115 27.7817 36.4934 28.0172 36.7617 28.3569C37.0301 28.6966 37.1716 29.1192 37.162 29.5519L37.1992 35.3583Z" fill="#D8A353"/>
</g>
</svg>
