<svg width="41" height="41" viewBox="0 0 41 41" fill="none" xmlns="http://www.w3.org/2000/svg">
<g id="Email">
<path id="Vector" d="M33.9521 33.8282H6.77284C5.34312 33.8266 3.97243 33.2579 2.96147 32.2469C1.9505 31.2359 1.38181 29.8653 1.38013 28.4355V12.1686C1.38181 10.7389 1.9505 9.36819 2.96147 8.35722C3.97243 7.34626 5.34312 6.77756 6.77284 6.77588H33.9521C35.3818 6.77756 36.7525 7.34626 37.7635 8.35722C38.7744 9.36819 39.3431 10.7389 39.3448 12.1686V28.4355C39.3431 29.8653 38.7744 31.2359 37.7635 32.2469C36.7525 33.2579 35.3818 33.8266 33.9521 33.8282ZM6.77284 8.67919C5.84739 8.67919 4.95985 9.04682 4.30546 9.70121C3.65107 10.3556 3.28344 11.2431 3.28344 12.1686V28.4355C3.28344 29.361 3.65107 30.2485 4.30546 30.9029C4.95985 31.5573 5.84739 31.9249 6.77284 31.9249H33.9521C34.8775 31.9249 35.7651 31.5573 36.4195 30.9029C37.0739 30.2485 37.4415 29.361 37.4415 28.4355V12.1686C37.4415 11.2431 37.0739 10.3556 36.4195 9.70121C35.7651 9.04682 34.8775 8.67919 33.9521 8.67919H6.77284Z" fill="#D8A353"/>
<path id="Vector_2" d="M20.3621 24.1588C19.1881 24.1606 18.0456 23.7798 17.1075 23.0739L2.29339 11.8698C2.18872 11.7963 2.09993 11.7025 2.03232 11.594C1.96471 11.4854 1.91967 11.3644 1.89989 11.238C1.8801 11.1117 1.88598 10.9827 1.91717 10.8587C1.94837 10.7347 2.00423 10.6182 2.08143 10.5163C2.15863 10.4143 2.25559 10.329 2.3665 10.2654C2.47742 10.2017 2.60002 10.1611 2.72699 10.1459C2.85396 10.1307 2.98269 10.1413 3.10549 10.1769C3.22829 10.2126 3.34264 10.2726 3.44172 10.3535L18.2558 21.5703C18.8642 22.0244 19.603 22.2698 20.3621 22.2698C21.1213 22.2698 21.8601 22.0244 22.4685 21.5703L37.2825 10.3535C37.3816 10.2726 37.496 10.2126 37.6188 10.1769C37.7416 10.1413 37.8703 10.1307 37.9973 10.1459C38.1242 10.1611 38.2468 10.2017 38.3578 10.2654C38.4687 10.329 38.5656 10.4143 38.6428 10.5163C38.72 10.6182 38.7759 10.7347 38.8071 10.8587C38.8383 10.9827 38.8442 11.1117 38.8244 11.238C38.8046 11.3644 38.7596 11.4854 38.6919 11.594C38.6243 11.7025 38.5355 11.7963 38.4309 11.8698L23.6168 23.0739C22.6787 23.7798 21.5361 24.1606 20.3621 24.1588Z" fill="#D8A353"/>
<path id="Vector_3" d="M2.70574 31.1762C2.51273 31.1765 2.32419 31.1181 2.16515 31.0087C2.0061 30.8993 1.88407 30.7442 1.81525 30.5639C1.74642 30.3836 1.73405 30.1866 1.77978 29.999C1.82552 29.8115 1.92719 29.6423 2.0713 29.514L13.7449 19.1029C13.9334 18.9346 14.181 18.8481 14.4332 18.8624C14.6854 18.8766 14.9217 18.9905 15.0899 19.179C15.2582 19.3674 15.3447 19.615 15.3304 19.8673C15.3162 20.1195 15.2023 20.3557 15.0138 20.524L3.34017 30.9351C3.16681 31.0928 2.9401 31.179 2.70574 31.1762ZM38.0185 31.1762C37.7841 31.179 37.5574 31.0928 37.384 30.9351L25.7104 20.524C25.5219 20.3557 25.408 20.1195 25.3938 19.8673C25.3795 19.615 25.466 19.3674 25.6343 19.179C25.8025 18.9905 26.0388 18.8766 26.291 18.8624C26.5432 18.8481 26.7908 18.9346 26.9793 19.1029L38.6465 29.514C38.7907 29.6423 38.8923 29.8115 38.9381 29.999C38.9838 30.1866 38.9714 30.3836 38.9026 30.5639C38.8338 30.7442 38.7118 30.8993 38.5527 31.0087C38.3937 31.1181 38.2051 31.1765 38.0121 31.1762H38.0185Z" fill="#D8A353"/>
</g>
</svg>
