<svg width="44" height="43" viewBox="0 0 44 43" fill="none" xmlns="http://www.w3.org/2000/svg">
<g id="Facebook">
<path id="Vector" d="M33.4138 3.04492C35.3012 3.04492 36.9151 3.71505 38.2553 5.05529C39.5956 6.39554 40.2657 8.00939 40.2657 9.89683V32.7365C40.2657 34.624 39.5956 36.2378 38.2553 37.5781C36.9151 38.9183 35.3012 39.5885 33.4138 39.5885H28.941V25.4326H33.6755L34.3892 19.913H28.941V16.3919C28.941 15.5037 29.1274 14.8375 29.5001 14.3934C29.8728 13.9493 30.5985 13.7272 31.677 13.7272L34.5796 13.7035V8.77864C33.5803 8.63589 32.1687 8.56452 30.3447 8.56452C28.1876 8.56452 26.4627 9.19895 25.1701 10.4678C23.8774 11.7367 23.2311 13.529 23.2311 15.8447V19.913H18.4728V25.4326H23.2311V39.5885H10.5741C8.68663 39.5885 7.07278 38.9183 5.73254 37.5781C4.39229 36.2378 3.72217 34.624 3.72217 32.7365V9.89683C3.72217 8.00939 4.39229 6.39554 5.73254 5.05529C7.07278 3.71505 8.68663 3.04492 10.5741 3.04492H33.4138Z" fill="#D8A353"/>
</g>
</svg>
