<svg width="39" height="38" viewBox="0 0 39 38" fill="none" xmlns="http://www.w3.org/2000/svg">
<g id="instagram" clip-path="url(#clip0_705_15)">
<path id="Path 16" d="M10.3678 37.2234C8.92295 37.2073 7.49165 36.9423 6.13677 36.44C5.14737 36.0743 4.25222 35.4921 3.51675 34.736C2.75856 34.002 2.17549 33.1066 1.81084 32.1163C1.30901 30.7615 1.04439 29.3303 1.02857 27.8856C0.917604 25.4839 0.895264 24.7635 0.895264 18.6778C0.895264 12.5921 0.919801 11.8743 1.02747 9.47075C1.04521 8.02661 1.31016 6.59618 1.81084 5.24151C2.17727 4.25195 2.75951 3.35643 3.51528 2.62002C4.24984 1.86252 5.14542 1.27999 6.13567 0.915579C7.49055 0.413335 8.92185 0.148334 10.3667 0.13221C12.7692 0.0223401 13.4907 0 19.5731 0C25.6554 0 26.3766 0.0245375 28.7801 0.13221C30.2246 0.149818 31.6554 0.414774 33.0105 0.915579C34.0003 1.28047 34.8956 1.8628 35.6305 2.61965C36.3876 3.35477 36.9701 4.25033 37.3353 5.24041C37.8377 6.59527 38.1028 8.02657 38.119 9.47148C38.2289 11.8751 38.2512 12.5947 38.2512 18.6785C38.2512 24.7624 38.2289 25.482 38.119 27.8856C38.1016 29.3303 37.8365 30.7612 37.3353 32.1163C36.9562 33.099 36.3755 33.9914 35.6306 34.736C34.8858 35.4807 33.9932 36.0612 33.0105 36.44C31.6556 36.9424 30.2243 37.2075 28.7794 37.2238C26.378 37.3336 25.6562 37.356 19.5723 37.356C13.4885 37.356 12.7689 37.3347 10.3675 37.2238" fill="url(#paint0_radial_705_15)"/>
<path id="Path 17" d="M10.3678 37.2234C8.92295 37.2073 7.49165 36.9423 6.13677 36.44C5.14737 36.0743 4.25222 35.4921 3.51675 34.736C2.75856 34.002 2.17549 33.1066 1.81084 32.1163C1.30901 30.7615 1.04439 29.3303 1.02857 27.8856C0.917604 25.4839 0.895264 24.7635 0.895264 18.6778C0.895264 12.5921 0.919801 11.8743 1.02747 9.47075C1.04521 8.02661 1.31016 6.59618 1.81084 5.24151C2.17727 4.25195 2.75951 3.35643 3.51528 2.62002C4.24984 1.86252 5.14542 1.27999 6.13567 0.915579C7.49055 0.413335 8.92185 0.148334 10.3667 0.13221C12.7692 0.0223401 13.4907 0 19.5731 0C25.6554 0 26.3766 0.0245375 28.7801 0.13221C30.2246 0.149818 31.6554 0.414774 33.0105 0.915579C34.0003 1.28047 34.8956 1.8628 35.6305 2.61965C36.3876 3.35477 36.9701 4.25033 37.3353 5.24041C37.8377 6.59527 38.1028 8.02657 38.119 9.47148C38.2289 11.8751 38.2512 12.5947 38.2512 18.6785C38.2512 24.7624 38.2289 25.482 38.119 27.8856C38.1016 29.3303 37.8365 30.7612 37.3353 32.1163C36.9562 33.099 36.3755 33.9914 35.6306 34.736C34.8858 35.4807 33.9932 36.0612 33.0105 36.44C31.6556 36.9424 30.2243 37.2075 28.7794 37.2238C26.378 37.3336 25.6562 37.356 19.5723 37.356C13.4885 37.356 12.7689 37.3347 10.3675 37.2238" fill="url(#paint1_radial_705_15)"/>
<path id="Path 18" d="M14.9864 18.7572C14.9864 17.8423 15.2578 16.948 15.7662 16.1873C16.2746 15.4266 16.9971 14.8337 17.8424 14.4837C18.6877 14.1336 19.6179 14.0421 20.5152 14.2207C21.4125 14.3993 22.2367 14.84 22.8836 15.487C23.5305 16.134 23.9709 16.9584 24.1493 17.8557C24.3277 18.7531 24.236 19.6832 23.8857 20.5285C23.5355 21.3737 22.9425 22.0961 22.1816 22.6043C21.4208 23.1125 20.5264 23.3836 19.6115 23.3835C18.3847 23.3833 17.2082 22.8958 16.3409 22.0282C15.4735 21.1606 14.9863 19.984 14.9864 18.7572ZM12.4854 18.7572C12.4854 20.1667 12.9033 21.5444 13.6863 22.7163C14.4694 23.8882 15.5823 24.8016 16.8844 25.3409C18.1866 25.8803 19.6194 26.0214 21.0017 25.7465C22.3841 25.4715 23.6538 24.7928 24.6504 23.7962C25.647 22.7996 26.3257 21.5298 26.6007 20.1475C26.8757 18.7652 26.7345 17.3323 26.1952 16.0302C25.6558 14.7281 24.7424 13.6151 23.5706 12.8321C22.3987 12.0491 21.0209 11.6311 19.6115 11.6311C18.6757 11.6311 17.749 11.8154 16.8844 12.1735C16.0198 12.5316 15.2342 13.0565 14.5725 13.7182C13.9107 14.3799 13.3858 15.1655 13.0277 16.0301C12.6696 16.8947 12.4853 17.8214 12.4854 18.7572ZM25.3544 11.3487C25.3542 11.6781 25.4518 12.0001 25.6346 12.274C25.8175 12.548 26.0775 12.7615 26.3817 12.8877C26.6859 13.0139 27.0207 13.047 27.3438 12.9829C27.6668 12.9188 27.9636 12.7603 28.1966 12.5275C28.4296 12.2947 28.5883 11.9981 28.6527 11.6751C28.7171 11.3521 28.6843 11.0172 28.5584 10.7129C28.4325 10.4086 28.2192 10.1484 27.9454 9.96529C27.6716 9.78219 27.3497 9.68438 27.0204 9.68423C26.5789 9.68442 26.1555 9.85983 25.8433 10.1719C25.5311 10.484 25.3555 10.9073 25.3551 11.3487M14.0056 30.0537C13.1256 30.044 12.2538 29.8829 11.4284 29.5776C10.8298 29.3468 10.2862 28.9933 9.8325 28.5398C9.37879 28.0863 9.02508 27.5428 8.79411 26.9444C8.48859 26.119 8.32754 25.2472 8.31802 24.3672C8.25063 22.9044 8.23744 22.465 8.23744 18.7591C8.23744 15.0532 8.25209 14.6148 8.31802 13.1506C8.32869 12.2707 8.48971 11.3991 8.79411 10.5734C9.02481 9.97467 9.37842 9.4309 9.83215 8.97717C10.2859 8.52344 10.8296 8.16983 11.4284 7.93913C12.2538 7.63362 13.1256 7.47257 14.0056 7.46304C15.4683 7.39565 15.9078 7.38246 19.6122 7.38246C23.3167 7.38246 23.7565 7.39675 25.2207 7.4634C26.1006 7.47408 26.9722 7.6351 27.7979 7.9395C28.3966 8.17022 28.9404 8.52384 29.3941 8.97756C29.8478 9.43129 30.2014 9.97505 30.4322 10.5738C30.7377 11.3991 30.8987 12.271 30.9083 13.151C30.9757 14.6159 30.9888 15.0532 30.9888 18.7594C30.9888 22.4657 30.9753 22.9037 30.9083 24.3679C30.898 25.2479 30.737 26.1195 30.4322 26.9451C30.2012 27.5436 29.8475 28.0871 29.3938 28.5406C28.9401 28.9941 28.3964 29.3476 27.7979 29.5783C26.9725 29.8838 26.1007 30.0449 25.2207 30.0544C23.758 30.1218 23.3185 30.135 19.6122 30.135C15.906 30.135 15.468 30.1214 14.0056 30.0544M13.8906 4.96424C12.7391 4.98688 11.5998 5.20482 10.5213 5.6088C9.59928 5.96528 8.76196 6.51049 8.06298 7.20946C7.364 7.90844 6.81879 8.74576 6.46231 9.66775C6.05839 10.7463 5.84045 11.8856 5.81776 13.0371C5.74927 14.5167 5.73389 14.9898 5.73389 18.7587C5.73389 22.5276 5.74964 23.0004 5.81776 24.4803C5.84044 25.6318 6.05839 26.7711 6.46231 27.8497C6.81881 28.7716 7.36403 29.609 8.063 30.3079C8.76198 31.0069 9.59929 31.5521 10.5213 31.9086C11.5999 32.3124 12.7391 32.5304 13.8906 32.5532C15.3709 32.6206 15.8433 32.6371 19.6122 32.6371C23.3811 32.6371 23.8539 32.6213 25.3339 32.5532C26.4853 32.5305 27.6246 32.3125 28.7032 31.9086C29.6252 31.5521 30.4625 31.0069 31.1614 30.3079C31.8604 29.609 32.4056 28.7716 32.7621 27.8497C33.1666 26.7713 33.3846 25.6319 33.4067 24.4803C33.4741 22.9997 33.4895 22.5276 33.4895 18.7587C33.4895 14.9898 33.4737 14.517 33.4067 13.0371C33.3841 11.8856 33.1661 10.7463 32.7621 9.66775C32.4057 8.74594 31.8606 7.90874 31.1618 7.20979C30.463 6.51083 29.626 5.96553 28.7043 5.6088C27.6258 5.20456 26.4865 4.98661 25.335 4.96424C23.855 4.89649 23.3822 4.88037 19.6141 4.88037C15.8459 4.88037 15.372 4.89612 13.8913 4.96424" fill="#5FE4D4"/>
</g>
<defs>
<radialGradient id="paint0_radial_705_15" cx="0" cy="0" r="1" gradientUnits="userSpaceOnUse" gradientTransform="translate(3.31276 36.5374) scale(47.4277)">
<stop offset="0.09" stop-color="#D8A353"/>
<stop offset="0.78" stop-color="#8526FE"/>
</radialGradient>
<radialGradient id="paint1_radial_705_15" cx="0" cy="0" r="1" gradientUnits="userSpaceOnUse" gradientTransform="translate(26.7702 35.3377) scale(41.7368)">
<stop offset="0.64" stop-color="#AD59D4" stop-opacity="0"/>
<stop offset="1" stop-color="#AD59D4"/>
</radialGradient>
<clipPath id="clip0_705_15">
<rect width="37.3556" height="37.3556" fill="white" transform="translate(0.895264)"/>
</clipPath>
</defs>
</svg>
