<svg width="51" height="51" viewBox="0 0 51 51" fill="none" xmlns="http://www.w3.org/2000/svg">
<g id="Location">
<path id="Vector" d="M25.3771 4.23047C29.8641 4.23047 34.1674 6.01293 37.3402 9.18573C40.513 12.3585 42.2954 16.6618 42.2954 21.1488C42.2954 32.5686 27.3862 45.4688 26.7517 46.0187C26.3687 46.3463 25.8812 46.5264 25.3771 46.5264C24.873 46.5264 24.3856 46.3463 24.0025 46.0187C23.2623 45.4688 8.45881 32.5686 8.45881 21.1488C8.45881 16.6618 10.2413 12.3585 13.4141 9.18573C16.5869 6.01293 20.8901 4.23047 25.3771 4.23047ZM25.3771 41.5565C29.8816 37.3269 38.0658 28.2122 38.0658 21.1488C38.0658 17.7835 36.729 14.5561 34.3494 12.1765C31.9698 9.79689 28.7424 8.46004 25.3771 8.46004C22.0118 8.46004 18.7844 9.79689 16.4048 12.1765C14.0252 14.5561 12.6884 17.7835 12.6884 21.1488C12.6884 28.2122 20.8726 37.348 25.3771 41.5565ZM25.3771 12.6896C27.0502 12.6896 28.6857 13.1857 30.0768 14.1152C31.4679 15.0447 32.5521 16.3659 33.1923 17.9116C33.8326 19.4573 34.0001 21.1582 33.6737 22.7991C33.3473 24.44 32.5417 25.9473 31.3586 27.1303C30.1756 28.3133 28.6683 29.119 27.0274 29.4454C25.3865 29.7718 23.6856 29.6043 22.1399 28.964C20.5942 28.3238 19.2731 27.2395 18.3436 25.8484C17.4141 24.4573 16.918 22.8218 16.918 21.1488C16.918 18.9053 17.8092 16.7536 19.3956 15.1672C20.982 13.5808 23.1336 12.6896 25.3771 12.6896ZM25.3771 25.3783C26.2136 25.3783 27.0314 25.1303 27.7269 24.6655C28.4225 24.2008 28.9646 23.5402 29.2847 22.7674C29.6049 21.9945 29.6886 21.1441 29.5254 20.3236C29.3622 19.5032 28.9594 18.7495 28.3679 18.158C27.7764 17.5665 27.0227 17.1637 26.2023 17.0005C25.3818 16.8373 24.5314 16.921 23.7585 17.2412C22.9857 17.5613 22.3251 18.1034 21.8603 18.7989C21.3956 19.4945 21.1475 20.3122 21.1475 21.1488C21.1475 22.2705 21.5931 23.3463 22.3863 24.1395C23.1795 24.9327 24.2554 25.3783 25.3771 25.3783Z" fill="#D8A353"/>
</g>
</svg>
