<svg width="100" height="100" viewBox="0 0 100 100" fill="none" xmlns="http://www.w3.org/2000/svg">
<g id="Power" clip-path="url(#clip0_616_28)">
<g id="katman 2">
<g id="Group">
<path id="Vector" d="M58.9219 20.0469C66.3612 22.2607 72.7105 27.1639 76.7334 33.8018C80.7564 40.4396 82.1651 48.3371 80.6854 55.9565C79.2056 63.5759 74.9432 70.372 68.7282 75.0215C62.5131 79.671 54.7901 81.8412 47.0629 81.1096C39.3357 80.378 32.1573 76.7969 26.9252 71.0635C21.6932 65.3301 18.7821 57.8549 18.7587 50.0931C18.7352 42.3314 21.6011 34.8387 26.7984 29.0738C31.9957 23.309 39.1523 19.6845 46.875 18.9063M81.875 30.25C85.5596 36.178 87.5084 43.0202 87.5 50M68.3906 17.3125C71.3812 18.972 74.1306 21.0327 76.5625 23.4375M29.3125 81.25C27.2028 79.8872 25.2347 78.3169 23.4375 76.5625" stroke="#9747FF" stroke-width="2" stroke-linecap="round" stroke-linejoin="round"/>
<path id="Vector_2" d="M69.4375 39.0625L30.5625 92.1875L54.6563 48.4375H32.7813L52.1719 7.8125H66.2344L47.5625 39.0625H69.4375Z" stroke="#9747FF" stroke-width="2" stroke-linecap="round" stroke-linejoin="round"/>
</g>
</g>
</g>
<defs>
<clipPath id="clip0_616_28">
<rect width="100" height="100" fill="white"/>
</clipPath>
</defs>
</svg>
