<svg width="100" height="100" viewBox="0 0 100 100" fill="none" xmlns="http://www.w3.org/2000/svg">
<g id="Secure">
<path id="Vector" d="M50 29.125C52.8852 29.125 55.25 31.4898 55.25 34.375V39.625H44.75V34.375C44.75 31.4898 47.1148 29.125 50 29.125Z" stroke="#9747FF" stroke-width="2"/>
<path id="Vector_2" d="M49.1446 92.4179L49.0428 92.3161L48.9164 92.2471L45.486 90.376C36.0757 85.0435 28.115 80.5144 22.4671 74.1414C16.8732 67.8294 13.5 59.6402 13.5 46.875V21.875C13.5 21.4918 13.6484 21.0615 13.9081 20.6864C14.1746 20.3015 14.4833 20.0805 14.6912 20.0112L14.704 20.0069L14.7167 20.0023L49.0917 7.50229L49.1458 7.48264L49.1972 7.45693C49.3426 7.38424 49.5733 7.32812 49.8438 7.32812C50.1142 7.32812 50.3449 7.38424 50.4903 7.45693L50.5417 7.48264L50.5958 7.50229L84.9708 20.0023L85.0196 20.02L85.07 20.0326C85.863 20.2309 86.5 21.0716 86.5 21.875V46.875C86.5 59.6395 83.1272 67.8302 77.5309 74.1827C71.9492 80.5187 64.1122 85.0898 54.8497 90.4925L54.5087 90.6914L51.1 92.5507C50.8621 92.6684 50.7271 92.7062 50.6169 92.7245C50.4795 92.7474 50.3322 92.75 50 92.75C49.6521 92.75 49.5877 92.7407 49.535 92.7232C49.508 92.7142 49.4032 92.6765 49.1446 92.4179ZM36.5 40.5561C32.7216 42.1172 30.25 45.7608 30.25 50V59.375C30.25 70.2398 39.1352 79.125 50 79.125C60.8648 79.125 69.75 70.2398 69.75 59.375V50C69.75 45.7608 67.2784 42.1172 63.5 40.5561V34.375C63.5 26.9477 57.4273 20.875 50 20.875C42.5727 20.875 36.5 26.9477 36.5 34.375V40.5561Z" stroke="#9747FF" stroke-width="2"/>
<path id="Vector_3" d="M50 50C48.125 50 46.875 51.25 46.875 53.125V59.375C46.875 61.25 48.125 62.5 50 62.5C51.875 62.5 53.125 61.25 53.125 59.375V53.125C53.125 51.25 51.875 50 50 50Z" fill="#9747FF"/>
</g>
</svg>
