<svg width="27" height="26" viewBox="0 0 27 26" fill="none" xmlns="http://www.w3.org/2000/svg">
<g id="Steering" clip-path="url(#clip0_643_53)">
<path id="Vector" d="M13.4998 0.403076C6.58666 0.403076 0.981689 6.00805 0.981689 12.9212C0.981689 19.8343 6.58666 25.4393 13.4998 25.4393C20.4129 25.4393 26.0179 19.8343 26.0179 12.9212C26.0179 6.00805 20.4129 0.403076 13.4998 0.403076ZM13.4998 3.5326C17.5736 3.5326 21.0145 6.1567 22.3141 9.79165H4.68548C5.98501 6.1567 9.42593 3.5326 13.4998 3.5326ZM13.4998 14.4859C13.2914 14.4906 13.0842 14.4537 12.8903 14.3772C12.6964 14.3007 12.5197 14.1863 12.3707 14.0406C12.2216 13.8949 12.1032 13.7209 12.0223 13.5288C11.9414 13.3367 11.8997 13.1304 11.8996 12.922C11.8996 12.7135 11.9412 12.5072 12.022 12.315C12.1028 12.1229 12.2211 11.9489 12.3701 11.8031C12.5191 11.6573 12.6957 11.5428 12.8896 11.4662C13.0834 11.3897 13.2906 11.3526 13.499 11.3572C13.9078 11.3662 14.2969 11.535 14.5829 11.8273C14.8689 12.1196 15.0291 12.5122 15.0292 12.9212C15.0293 13.3301 14.8693 13.7229 14.5834 14.0153C14.2976 14.3078 13.9086 14.4767 13.4998 14.4859ZM4.11121 12.9212C8.38692 12.9212 11.8497 17.0412 11.9225 22.1509C7.49736 21.3928 4.11121 17.5576 4.11121 12.9212ZM15.0771 22.1509C15.1498 17.0412 18.6126 12.9212 22.8884 12.9212C22.8884 17.5576 19.5022 21.3928 15.0771 22.1509Z" fill="url(#paint0_linear_643_53)"/>
</g>
<defs>
<linearGradient id="paint0_linear_643_53" x1="6.1362" y1="4.08487" x2="41.4814" y2="42.3755" gradientUnits="userSpaceOnUse">
<stop stop-color="#9747FF"/>
<stop offset="1" stop-color="#9747FF" stop-opacity="0"/>
</linearGradient>
<clipPath id="clip0_643_53">
<rect width="25.0362" height="25.0362" fill="white" transform="translate(0.981689 0.403076)"/>
</clipPath>
</defs>
</svg>
