<svg width="100" height="100" viewBox="0 0 100 100" fill="none" xmlns="http://www.w3.org/2000/svg">
<g id="Strength">
<path id="Vector" d="M95.7235 87.3063C86.7758 92.674 76.51 95.4441 66.0766 95.3061C55.6432 95.1681 45.4543 92.1275 36.6516 86.525C34.9456 85.4451 33.1361 84.538 31.2501 83.8172V79.6875H37.5001C37.7891 79.6878 38.0725 79.608 38.3188 79.4568C38.5651 79.3057 38.7647 79.0892 38.8954 78.8315C39.0261 78.5737 39.0827 78.2847 39.059 77.9967C39.0352 77.7087 38.9321 77.4329 38.761 77.2L32.8923 69.1969C34.7405 68.3059 36.2999 66.9116 37.3914 65.1742C38.4829 63.4368 39.0621 61.4268 39.0626 59.375C39.065 54.2467 39.4305 49.1251 40.1563 44.0484L40.6141 40.8469L37.5204 40.4031L37.0626 43.6063C36.3163 48.8294 35.9403 54.0988 35.9376 59.375C35.9375 60.9387 35.4669 62.4661 34.5868 63.7586C33.7068 65.0511 32.4581 66.0488 31.0032 66.6219L21.5735 53.7625C21.4213 53.5748 21.2291 53.4235 21.011 53.3195C20.7928 53.2155 20.5542 53.1616 20.3126 53.1616C20.0709 53.1616 19.8323 53.2155 19.6142 53.3195C19.396 53.4235 19.2038 53.5748 19.0516 53.7625L18.5829 54.3984C20.0479 49.2387 22.6507 44.4729 26.2001 40.4516L29.2266 37.0422C31.8574 34.4266 33.9432 31.3152 35.3633 27.8881C36.7835 24.461 37.5097 20.7863 37.5001 17.0766C37.5021 15.449 38.1496 13.8887 39.3004 12.7379C40.4513 11.587 42.0116 10.9396 43.6391 10.9375H64.0626C64.8914 10.9375 65.6862 11.2667 66.2723 11.8528C66.8583 12.4388 67.1876 13.2337 67.1876 14.0625V20.3125C67.1859 20.8586 67.0407 21.3947 66.7664 21.8669C66.4922 22.3392 66.0986 22.731 65.6251 23.0031V15.625C65.6251 14.3818 65.1312 13.1895 64.2521 12.3104C63.3731 11.4314 62.1808 10.9375 60.9376 10.9375V14.0625C61.352 14.0625 61.7494 14.2271 62.0424 14.5201C62.3355 14.8132 62.5001 15.2106 62.5001 15.625V25C62.5001 25.8288 62.1708 26.6237 61.5848 27.2097C60.9987 27.7958 60.2039 28.125 59.3751 28.125V18.75C59.3751 17.5068 58.8812 16.3145 58.0021 15.4354C57.1231 14.5564 55.9308 14.0625 54.6876 14.0625V17.1875C55.102 17.1875 55.4994 17.3521 55.7924 17.6451C56.0855 17.9382 56.2501 18.3356 56.2501 18.75V29.6875C56.2501 30.5163 55.9208 31.3112 55.3348 31.8972C54.7487 32.4833 53.9539 32.8125 53.1251 32.8125H50.0001C49.5857 32.8125 49.1882 32.6479 48.8952 32.3549C48.6022 32.0618 48.4376 31.6644 48.4376 31.25V26.5625H53.1251V23.4375H48.4376C47.1944 23.4375 46.0021 22.9436 45.123 22.0646C44.2439 21.1855 43.7501 19.9932 43.7501 18.75H40.6251C40.6271 20.2684 41.0715 21.7533 41.904 23.0231C42.7365 24.2929 43.921 25.2926 45.3126 25.9V25.9641C43.3125 28.206 42.2011 31.1018 42.1876 34.1062C42.1877 35.4103 42.2953 36.7121 42.5094 37.9984C43.3329 42.9518 43.7478 47.9646 43.7501 52.9859V57.3438L40.8876 61.6375L43.4876 63.3719L46.4657 58.9062L48.1001 57.6797C50.7258 55.7255 53.9145 54.6755 57.1876 54.6875C59.4174 54.6902 61.6161 55.21 63.611 56.2062L66.3704 57.5891C67.6476 58.4519 68.7302 59.5724 69.5485 60.8786C70.3668 62.1848 70.9028 63.6477 71.122 65.1734L71.8876 70.5344L74.9813 70.0906L74.2157 64.7313C73.7351 61.4125 72.0929 58.3719 69.5813 56.15C72.9024 53.2424 77.1526 51.616 81.5663 51.5639C85.9801 51.5117 90.2675 53.0372 93.6563 55.8656L97.4329 59.0141L99.436 56.6109L95.6579 53.4641C91.5829 50.0688 86.4051 48.2843 81.1035 48.4478C75.802 48.6113 70.744 50.7116 66.886 54.3516L65.011 53.4141C62.5446 52.1865 59.8254 51.5525 57.0704 51.5625C53.4338 51.5689 49.8826 52.665 46.8751 54.7094V52.9906C46.8736 47.7975 46.4445 42.6133 45.5923 37.4906C45.4067 36.372 45.3132 35.2401 45.3126 34.1062C45.3144 33.5393 45.3698 32.9737 45.4782 32.4172C45.7364 33.4215 46.3203 34.3118 47.1385 34.9488C47.9568 35.5858 48.9631 35.9335 50.0001 35.9375H53.1251C54.5103 35.9362 55.856 35.4752 56.9512 34.6269C58.0463 33.7786 58.829 32.5909 59.1766 31.25H59.3751C60.7884 31.2489 62.1598 30.7697 63.2662 29.8903C64.3726 29.0108 65.1489 27.7829 65.4688 26.4062C66.8455 26.0863 68.0734 25.31 68.9529 24.2036C69.8323 23.0972 70.3115 21.7258 70.3126 20.3125V14.0625C70.3126 12.4049 69.6541 10.8152 68.482 9.64308C67.3099 8.47098 65.7202 7.8125 64.0626 7.8125H43.6391C41.1829 7.81498 38.828 8.79181 37.0912 10.5286C35.3544 12.2654 34.3776 14.6203 34.3751 17.0766C34.3808 20.3906 33.7281 23.6728 32.4548 26.7325C31.1816 29.7922 29.3131 32.5684 26.9579 34.9L23.8673 38.3766C18.4587 44.4948 15.1035 52.1543 14.2735 60.2781L1.86414 77.2C1.69305 77.4329 1.58991 77.7087 1.56619 77.9967C1.54246 78.2847 1.59908 78.5737 1.72974 78.8315C1.86041 79.0892 2.06 79.3057 2.30633 79.4568C2.55266 79.608 2.83608 79.6878 3.12507 79.6875H9.37507V98.4375H12.5001V78.125C12.5001 77.7106 12.3355 77.3132 12.0424 77.0201C11.7494 76.7271 11.352 76.5625 10.9376 76.5625H6.20945L20.3126 57.3297L34.4157 76.5625H29.6876C29.2732 76.5625 28.8757 76.7271 28.5827 77.0201C28.2897 77.3132 28.1251 77.7106 28.1251 78.125V98.4375H31.2501V87.1875C32.54 87.7475 33.7849 88.4063 34.9735 89.1578C44.2661 95.0716 55.0219 98.2809 66.0357 98.426C77.0495 98.5712 87.8861 95.6465 97.3313 89.9797L99.2423 88.8328L97.6329 86.1547L95.7235 87.3063Z" fill="#9747FF"/>
</g>
</svg>
