<svg width="47" height="46" viewBox="0 0 47 46" fill="none" xmlns="http://www.w3.org/2000/svg">
<g id="whatsapp">
<path id="Vector" d="M42.3333 12.4111C42.312 11.5936 42.2487 10.7778 42.1438 9.96676C42.0023 9.25643 41.7665 8.56819 41.4427 7.92032C41.104 7.21753 40.6492 6.57693 40.0974 6.02547C39.5404 5.48014 38.901 5.02611 38.2025 4.68013C37.5538 4.36264 36.8655 4.13323 36.1561 3.99798C35.3528 3.87766 34.5427 3.80804 33.7307 3.78955H13.0578C12.2404 3.81084 11.4245 3.87409 10.6135 3.97904C9.90316 4.12052 9.21492 4.35631 8.56705 4.68013C7.86426 5.01881 7.22365 5.47364 6.6722 6.02547C6.12687 6.58239 5.67284 7.22187 5.32686 7.92032C5.00937 8.56905 4.77995 9.25728 4.64471 9.96676C4.52439 10.7701 4.45477 11.5801 4.43628 12.3922C4.43628 12.7522 4.43628 13.2638 4.43628 13.4154V32.0607C4.43628 32.2691 4.43628 32.7239 4.43628 33.065C4.45757 33.8825 4.52082 34.6983 4.62576 35.5093C4.76725 36.2197 5.00304 36.9079 5.32686 37.5558C5.66554 38.2586 6.12037 38.8992 6.6722 39.4506C7.22912 39.996 7.8686 40.45 8.56705 40.796C9.21578 41.1135 9.90401 41.3429 10.6135 41.4781C11.4168 41.5984 12.2269 41.6681 13.0389 41.6865H33.7117C34.5292 41.6653 35.3451 41.602 36.1561 41.4971C36.8664 41.3556 37.5546 41.1198 38.2025 40.796C38.9053 40.4573 39.5459 40.0025 40.0974 39.4506C40.6427 38.8937 41.0967 38.2542 41.4427 37.5558C41.7602 36.907 41.9896 36.2188 42.1248 35.5093C42.2452 34.706 42.3148 33.896 42.3333 33.0839C42.3333 32.7239 42.3333 32.2691 42.3333 32.0607V13.4154C42.3333 13.2638 42.3333 12.7522 42.3333 12.4111ZM23.8206 36.002C21.545 35.9908 19.3092 35.4041 17.3213 34.2966L10.1208 36.1915L12.0157 29.1426C10.7937 27.0895 10.1398 24.7483 10.1208 22.3591C10.1284 19.6739 10.9303 17.0511 12.4256 14.8208C13.921 12.5906 16.0428 10.8527 18.524 9.826C21.0051 8.79935 23.7346 8.52984 26.3686 9.05143C29.0026 9.57302 31.4233 10.8624 33.326 12.7571C35.2286 14.6519 36.528 17.0672 37.0606 19.6991C37.5931 22.3309 37.335 25.0614 36.3186 27.5468C35.3023 30.0322 33.5732 32.1613 31.3492 33.6659C29.1252 35.1704 26.5057 35.9833 23.8206 36.002ZM23.8206 11.1226C21.8117 11.1456 19.8448 11.7005 18.12 12.7308C16.3953 13.7612 14.9744 15.2301 14.002 16.9882C13.0296 18.7462 12.5405 20.7305 12.5843 22.739C12.6281 24.7476 13.2034 26.7087 14.2516 28.4226L14.5169 28.8584L13.38 33.0081L17.7002 31.8333L18.1171 32.0797C19.8406 33.0948 21.8014 33.6373 23.8016 33.6524C26.8169 33.6524 29.7087 32.4546 31.8408 30.3224C33.9729 28.1903 35.1707 25.2986 35.1707 22.2833C35.1707 19.268 33.9729 16.3762 31.8408 14.2441C29.7087 12.112 26.8169 10.9142 23.8016 10.9142L23.8206 11.1226ZM30.4526 27.2667C30.2044 27.6807 29.8721 28.038 29.4771 28.3154C29.0822 28.5928 28.6334 28.7843 28.1598 28.8774C27.4521 29.0067 26.7236 28.9612 26.0376 28.7447C25.3921 28.5429 24.7593 28.3025 24.1427 28.0247C21.8002 26.8492 19.8024 25.0865 18.3445 22.9086C17.5522 21.8995 17.0715 20.6813 16.9612 19.4031C16.95 18.8722 17.0504 18.3448 17.256 17.8551C17.4617 17.3655 17.768 16.9245 18.155 16.5608C18.269 16.4316 18.4088 16.3277 18.5655 16.2559C18.7222 16.1841 18.8922 16.146 19.0645 16.144H19.5951C19.8035 16.144 20.0877 16.144 20.353 16.7314C20.6183 17.3188 21.3194 19.081 21.4141 19.2515C21.4607 19.3424 21.485 19.4431 21.485 19.5452C21.485 19.6474 21.4607 19.748 21.4141 19.8389C21.3304 20.0448 21.2153 20.2366 21.0731 20.4074C20.9025 20.6158 20.713 20.8621 20.5615 21.0137C20.4099 21.1653 20.2204 21.3548 20.4099 21.6959C20.9254 22.566 21.5636 23.3573 22.3047 24.0455C23.1118 24.7586 24.0345 25.3289 25.0333 25.7319C25.3744 25.9024 25.5828 25.8835 25.7723 25.7319C25.9618 25.5803 26.625 24.7466 26.8524 24.4055C27.0797 24.0644 27.3071 24.1213 27.6103 24.235C27.9135 24.3487 29.5999 25.1635 29.941 25.334C30.282 25.5045 30.4905 25.5803 30.5852 25.7319C30.6674 26.2278 30.6217 26.7365 30.4526 27.2099V27.2667Z" fill="#D8A353"/>
</g>
</svg>
